<svg id="Layer_1" data-name="Layer 1" xmlns="http://www.w3.org/2000/svg" xmlns:xlink="http://www.w3.org/1999/xlink" viewBox="0 0 401.88 383.63"><defs><style>.cls-1{fill:url(#linear-gradient);}.cls-10,.cls-11,.cls-12,.cls-13,.cls-14,.cls-15,.cls-16,.cls-17,.cls-18,.cls-19,.cls-2,.cls-20,.cls-21,.cls-22,.cls-23,.cls-24,.cls-25,.cls-26,.cls-27,.cls-28,.cls-29,.cls-3,.cls-30,.cls-31,.cls-32,.cls-33,.cls-34,.cls-35,.cls-36,.cls-37,.cls-38,.cls-39,.cls-4,.cls-40,.cls-41,.cls-42,.cls-43,.cls-44,.cls-45,.cls-46,.cls-47,.cls-48,.cls-49,.cls-5,.cls-50,.cls-51,.cls-52,.cls-53,.cls-54,.cls-55,.cls-56,.cls-57,.cls-58,.cls-59,.cls-60,.cls-61,.cls-62,.cls-63,.cls-64,.cls-65,.cls-66,.cls-67,.cls-68,.cls-69,.cls-7,.cls-70,.cls-73,.cls-8,.cls-9{stroke-miterlimit:10;}.cls-2,.cls-3,.cls-4,.cls-5,.cls-70{stroke-width:0.5px;}.cls-2{fill:url(#linear-gradient-2);stroke:url(#linear-gradient-3);}.cls-3{fill:url(#linear-gradient-4);stroke:url(#linear-gradient-5);}.cls-4{fill:url(#linear-gradient-6);stroke:url(#linear-gradient-7);}.cls-5{fill:url(#linear-gradient-8);stroke:url(#linear-gradient-9);}.cls-6{fill:url(#linear-gradient-10);}.cls-10,.cls-11,.cls-12,.cls-13,.cls-14,.cls-15,.cls-16,.cls-17,.cls-18,.cls-19,.cls-20,.cls-21,.cls-22,.cls-23,.cls-24,.cls-25,.cls-26,.cls-27,.cls-28,.cls-29,.cls-30,.cls-31,.cls-32,.cls-33,.cls-34,.cls-35,.cls-36,.cls-37,.cls-38,.cls-39,.cls-40,.cls-41,.cls-42,.cls-43,.cls-44,.cls-45,.cls-46,.cls-47,.cls-48,.cls-49,.cls-50,.cls-51,.cls-52,.cls-53,.cls-54,.cls-55,.cls-56,.cls-57,.cls-58,.cls-59,.cls-60,.cls-61,.cls-62,.cls-63,.cls-64,.cls-65,.cls-66,.cls-67,.cls-68,.cls-69,.cls-7,.cls-71,.cls-8,.cls-9{fill:none;}.cls-10,.cls-11,.cls-12,.cls-13,.cls-14,.cls-15,.cls-16,.cls-17,.cls-18,.cls-19,.cls-20,.cls-21,.cls-22,.cls-23,.cls-24,.cls-25,.cls-26,.cls-27,.cls-28,.cls-29,.cls-30,.cls-31,.cls-32,.cls-33,.cls-34,.cls-35,.cls-36,.cls-37,.cls-38,.cls-39,.cls-40,.cls-41,.cls-42,.cls-43,.cls-44,.cls-45,.cls-46,.cls-47,.cls-48,.cls-49,.cls-50,.cls-51,.cls-52,.cls-53,.cls-54,.cls-55,.cls-56,.cls-57,.cls-58,.cls-59,.cls-60,.cls-61,.cls-62,.cls-63,.cls-64,.cls-65,.cls-66,.cls-67,.cls-68,.cls-69,.cls-7,.cls-8,.cls-9{stroke-width:0.3px;}.cls-7{stroke:url(#linear-gradient-11);}.cls-8{stroke:url(#linear-gradient-12);}.cls-9{stroke:url(#linear-gradient-13);}.cls-10{stroke:url(#linear-gradient-14);}.cls-11{stroke:url(#linear-gradient-15);}.cls-12{stroke:url(#linear-gradient-16);}.cls-13{stroke:url(#linear-gradient-17);}.cls-14{stroke:url(#linear-gradient-18);}.cls-15{stroke:url(#linear-gradient-19);}.cls-16{stroke:url(#linear-gradient-20);}.cls-17{stroke:url(#linear-gradient-21);}.cls-18{stroke:url(#linear-gradient-22);}.cls-19{stroke:url(#linear-gradient-23);}.cls-20{stroke:url(#linear-gradient-24);}.cls-21{stroke:url(#linear-gradient-25);}.cls-22{stroke:url(#linear-gradient-26);}.cls-23{stroke:url(#linear-gradient-27);}.cls-24{stroke:url(#linear-gradient-28);}.cls-25{stroke:url(#linear-gradient-29);}.cls-26{stroke:url(#linear-gradient-30);}.cls-27{stroke:url(#linear-gradient-31);}.cls-28{stroke:url(#linear-gradient-32);}.cls-29{stroke:url(#linear-gradient-33);}.cls-30{stroke:url(#linear-gradient-34);}.cls-31{stroke:url(#linear-gradient-35);}.cls-32{stroke:url(#linear-gradient-36);}.cls-33{stroke:url(#linear-gradient-37);}.cls-34{stroke:url(#linear-gradient-38);}.cls-35{stroke:url(#linear-gradient-39);}.cls-36{stroke:url(#linear-gradient-40);}.cls-37{stroke:url(#linear-gradient-41);}.cls-38{stroke:url(#linear-gradient-42);}.cls-39{stroke:url(#linear-gradient-43);}.cls-40{stroke:url(#linear-gradient-44);}.cls-41{stroke:url(#linear-gradient-45);}.cls-42{stroke:url(#linear-gradient-46);}.cls-43{stroke:url(#linear-gradient-47);}.cls-44{stroke:url(#linear-gradient-48);}.cls-45{stroke:url(#linear-gradient-49);}.cls-46{stroke:url(#linear-gradient-50);}.cls-47{stroke:url(#linear-gradient-51);}.cls-48{stroke:url(#linear-gradient-52);}.cls-49{stroke:url(#linear-gradient-53);}.cls-50{stroke:url(#linear-gradient-54);}.cls-51{stroke:url(#linear-gradient-55);}.cls-52{stroke:url(#linear-gradient-56);}.cls-53{stroke:url(#linear-gradient-57);}.cls-54{stroke:url(#linear-gradient-58);}.cls-55{stroke:url(#linear-gradient-59);}.cls-56{stroke:url(#linear-gradient-60);}.cls-57{stroke:url(#linear-gradient-61);}.cls-58{stroke:url(#linear-gradient-62);}.cls-59{stroke:url(#linear-gradient-63);}.cls-60{stroke:url(#linear-gradient-64);}.cls-61{stroke:url(#linear-gradient-65);}.cls-62{stroke:url(#linear-gradient-66);}.cls-63{stroke:url(#linear-gradient-67);}.cls-64{stroke:url(#linear-gradient-68);}.cls-65{stroke:url(#linear-gradient-69);}.cls-66{stroke:url(#linear-gradient-70);}.cls-67{stroke:url(#linear-gradient-71);}.cls-68{stroke:url(#linear-gradient-72);}.cls-69{stroke:url(#linear-gradient-73);}.cls-70,.cls-73{fill:#fff;stroke:#00a8d4;}.cls-72{fill:#73cae4;}.cls-73{stroke-width:0.1px;}</style><linearGradient id="linear-gradient" x1="160.51" y1="314.87" x2="227.03" y2="-210.54" gradientUnits="userSpaceOnUse"><stop offset="0" stop-color="#00a8d4"/><stop offset="0.4" stop-color="#a4e0f0"/><stop offset="0.61" stop-color="#fff"/></linearGradient><linearGradient id="linear-gradient-2" x1="124.17" y1="296.76" x2="182.41" y2="-163.24" gradientUnits="userSpaceOnUse"><stop offset="0.22" stop-color="#fff"/><stop offset="0.25" stop-color="#ebf8fc"/><stop offset="0.32" stop-color="#b8e7f3"/><stop offset="0.42" stop-color="#66cbe5"/><stop offset="0.53" stop-color="#00a8d4"/></linearGradient><linearGradient id="linear-gradient-3" x1="107.71" y1="147.56" x2="180.53" y2="147.56" gradientUnits="userSpaceOnUse"><stop offset="0" stop-color="#cfedf8"/><stop offset="0.17" stop-color="#beddf2"/><stop offset="0.43" stop-color="#accdeb"/><stop offset="0.69" stop-color="#a1c3e7"/><stop offset="1" stop-color="#9ec0e6"/></linearGradient><linearGradient id="linear-gradient-4" x1="231.58" y1="265.91" x2="231.58" y2="100.85" gradientUnits="userSpaceOnUse"><stop offset="0.28" stop-color="#fff"/><stop offset="0.96" stop-color="#30b1dd"/><stop offset="1" stop-color="#22acdb"/></linearGradient><linearGradient id="linear-gradient-5" x1="184.84" y1="183.04" x2="278.5" y2="183.04" xlink:href="#linear-gradient-3"/><linearGradient id="linear-gradient-6" x1="215.43" y1="283.3" x2="215.43" y2="176.69" gradientUnits="userSpaceOnUse"><stop offset="0" stop-color="#fff"/><stop offset="0.09" stop-color="#f4fbfd"/><stop offset="0.23" stop-color="#d8f2f8"/><stop offset="0.43" stop-color="#aae2f1"/><stop offset="0.66" stop-color="#6acce6"/><stop offset="0.92" stop-color="#19b1d8"/><stop offset="1" stop-color="#00a8d4"/></linearGradient><linearGradient id="linear-gradient-7" x1="191.51" y1="229.61" x2="239.71" y2="229.61" gradientUnits="userSpaceOnUse"><stop offset="0" stop-color="#fffffb"/><stop offset="0.07" stop-color="#f5f8f9"/><stop offset="0.34" stop-color="#cfe0f1"/><stop offset="0.6" stop-color="#b4ceeb"/><stop offset="0.83" stop-color="#a4c4e7"/><stop offset="1" stop-color="#9ec0e6"/></linearGradient><linearGradient id="linear-gradient-8" x1="182.15" y1="270.39" x2="182.15" y2="76.26" gradientUnits="userSpaceOnUse"><stop offset="0" stop-color="#fff"/><stop offset="0.08" stop-color="#f1fafd"/><stop offset="0.23" stop-color="#cbedf6"/><stop offset="0.44" stop-color="#8ed8ec"/><stop offset="0.7" stop-color="#3bbcde"/><stop offset="0.87" stop-color="#00a8d4"/></linearGradient><linearGradient id="linear-gradient-9" x1="147.62" y1="172.5" x2="216.68" y2="172.5" xlink:href="#linear-gradient-3"/><linearGradient id="linear-gradient-10" x1="153.88" y1="404.43" x2="240.69" y2="-281.23" gradientUnits="userSpaceOnUse"><stop offset="0" stop-color="#00a8d4"/><stop offset="0.02" stop-color="#09abd5"/><stop offset="0.14" stop-color="#42bedf"/><stop offset="0.25" stop-color="#74d0e8"/><stop offset="0.37" stop-color="#9fdeef"/><stop offset="0.5" stop-color="#c2eaf5"/><stop offset="0.62" stop-color="#ddf3f9"/><stop offset="0.74" stop-color="#f0fafc"/><stop offset="0.87" stop-color="#fbfefe"/><stop offset="1" stop-color="#fff"/></linearGradient><linearGradient id="linear-gradient-11" x1="108.74" y1="224.18" x2="127.67" y2="224.18" gradientUnits="userSpaceOnUse"><stop offset="0" stop-color="#a2def9"/><stop offset="0.14" stop-color="#88d2f3"/><stop offset="0.55" stop-color="#3fb1e3"/><stop offset="0.85" stop-color="#129dd9"/><stop offset="1" stop-color="#0095d5"/></linearGradient><linearGradient id="linear-gradient-12" x1="113.34" y1="242.23" x2="147.15" y2="242.23" xlink:href="#linear-gradient-11"/><linearGradient id="linear-gradient-13" x1="108.73" y1="185.77" x2="111.4" y2="185.77" xlink:href="#linear-gradient-11"/><linearGradient id="linear-gradient-14" x1="108.23" y1="162.48" x2="128.69" y2="162.48" xlink:href="#linear-gradient-11"/><linearGradient id="linear-gradient-15" x1="125.15" y1="188.78" x2="129.21" y2="188.78" xlink:href="#linear-gradient-11"/><linearGradient id="linear-gradient-16" x1="124.51" y1="214.02" x2="132.26" y2="214.02" xlink:href="#linear-gradient-11"/><linearGradient id="linear-gradient-17" x1="136.32" y1="246.57" x2="171.56" y2="246.57" xlink:href="#linear-gradient-11"/><linearGradient id="linear-gradient-18" x1="146.59" y1="268.21" x2="186.89" y2="268.21" xlink:href="#linear-gradient-11"/><linearGradient id="linear-gradient-19" x1="133.36" y1="183.2" x2="142.71" y2="183.2" xlink:href="#linear-gradient-11"/><linearGradient id="linear-gradient-20" x1="133.32" y1="207.14" x2="135.82" y2="207.14" xlink:href="#linear-gradient-11"/><linearGradient id="linear-gradient-21" x1="146.54" y1="220.92" x2="155.75" y2="220.92" xlink:href="#linear-gradient-11"/><linearGradient id="linear-gradient-22" x1="147.9" y1="200.95" x2="154.3" y2="200.95" xlink:href="#linear-gradient-11"/><linearGradient id="linear-gradient-23" x1="147.4" y1="177.55" x2="164.63" y2="177.55" xlink:href="#linear-gradient-11"/><linearGradient id="linear-gradient-24" x1="153.86" y1="156.52" x2="180.73" y2="156.52" xlink:href="#linear-gradient-11"/><linearGradient id="linear-gradient-25" x1="156.49" y1="210.92" x2="160.07" y2="210.92" xlink:href="#linear-gradient-11"/><linearGradient id="linear-gradient-26" x1="155.19" y1="232.18" x2="163.76" y2="232.18" xlink:href="#linear-gradient-11"/><linearGradient id="linear-gradient-27" x1="108.74" y1="223.75" x2="127.62" y2="223.75" xlink:href="#linear-gradient-11"/><linearGradient id="linear-gradient-28" x1="171.99" y1="214.26" x2="191.93" y2="214.26" xlink:href="#linear-gradient-11"/><linearGradient id="linear-gradient-29" x1="173.16" y1="236.04" x2="178.38" y2="236.04" xlink:href="#linear-gradient-11"/><linearGradient id="linear-gradient-30" x1="171.98" y1="262.11" x2="186.94" y2="262.11" xlink:href="#linear-gradient-11"/><linearGradient id="linear-gradient-31" x1="166.72" y1="227.49" x2="172.39" y2="227.49" xlink:href="#linear-gradient-11"/><linearGradient id="linear-gradient-32" x1="165.2" y1="251.37" x2="179.52" y2="251.37" xlink:href="#linear-gradient-11"/><linearGradient id="linear-gradient-33" x1="178.1" y1="177.53" x2="221.42" y2="177.53" xlink:href="#linear-gradient-11"/><linearGradient id="linear-gradient-34" x1="250.63" y1="221.13" x2="262.3" y2="221.13" xlink:href="#linear-gradient-11"/><linearGradient id="linear-gradient-35" x1="250.66" y1="222.48" x2="277.7" y2="222.48" xlink:href="#linear-gradient-11"/><linearGradient id="linear-gradient-36" x1="243.39" y1="255.46" x2="271.43" y2="255.46" xlink:href="#linear-gradient-11"/><linearGradient id="linear-gradient-37" x1="216.47" y1="275.96" x2="253.36" y2="275.96" xlink:href="#linear-gradient-11"/><linearGradient id="linear-gradient-38" x1="195.95" y1="281.61" x2="242.53" y2="281.61" xlink:href="#linear-gradient-11"/><linearGradient id="linear-gradient-39" x1="185.08" y1="277.64" x2="196.13" y2="277.64" xlink:href="#linear-gradient-11"/><linearGradient id="linear-gradient-40" x1="182.83" y1="260.29" x2="190.86" y2="260.29" xlink:href="#linear-gradient-11"/><linearGradient id="linear-gradient-41" x1="185.06" y1="243.74" x2="187.87" y2="243.74" xlink:href="#linear-gradient-11"/><linearGradient id="linear-gradient-42" x1="182.83" y1="224.04" x2="196.01" y2="224.04" xlink:href="#linear-gradient-11"/><linearGradient id="linear-gradient-43" x1="195.75" y1="211.58" x2="205.98" y2="211.58" xlink:href="#linear-gradient-11"/><linearGradient id="linear-gradient-44" x1="199.72" y1="216.46" x2="209.63" y2="216.46" xlink:href="#linear-gradient-11"/><linearGradient id="linear-gradient-45" x1="234.02" y1="203.14" x2="238.29" y2="203.14" xlink:href="#linear-gradient-11"/><linearGradient id="linear-gradient-46" x1="209.48" y1="204.48" x2="231.04" y2="204.48" xlink:href="#linear-gradient-11"/><linearGradient id="linear-gradient-47" x1="218.15" y1="193.55" x2="238.39" y2="193.55" xlink:href="#linear-gradient-11"/><linearGradient id="linear-gradient-48" x1="229.81" y1="225.58" x2="236.84" y2="225.58" xlink:href="#linear-gradient-11"/><linearGradient id="linear-gradient-49" x1="223.33" y1="242.64" x2="234.32" y2="242.64" xlink:href="#linear-gradient-11"/><linearGradient id="linear-gradient-50" x1="216.73" y1="252.92" x2="230.08" y2="252.92" xlink:href="#linear-gradient-11"/><linearGradient id="linear-gradient-51" x1="195.23" y1="223.77" x2="219.15" y2="223.77" xlink:href="#linear-gradient-11"/><linearGradient id="linear-gradient-52" x1="192.44" y1="240.02" x2="209.73" y2="240.02" xlink:href="#linear-gradient-11"/><linearGradient id="linear-gradient-53" x1="195.38" y1="261.78" x2="198.75" y2="261.78" xlink:href="#linear-gradient-11"/><linearGradient id="linear-gradient-54" x1="198.54" y1="275.19" x2="230.19" y2="275.19" xlink:href="#linear-gradient-11"/><linearGradient id="linear-gradient-55" x1="217.57" y1="259.01" x2="239.16" y2="259.01" xlink:href="#linear-gradient-11"/><linearGradient id="linear-gradient-56" x1="195.93" y1="277.1" x2="253.34" y2="277.1" xlink:href="#linear-gradient-11"/><linearGradient id="linear-gradient-57" x1="216.45" y1="262" x2="271.08" y2="262" xlink:href="#linear-gradient-11"/><linearGradient id="linear-gradient-58" x1="243.11" y1="240.73" x2="278.11" y2="240.73" xlink:href="#linear-gradient-11"/><linearGradient id="linear-gradient-59" x1="182.09" y1="265.91" x2="196.14" y2="265.91" xlink:href="#linear-gradient-11"/><linearGradient id="linear-gradient-60" x1="187.57" y1="249.48" x2="190.55" y2="249.48" xlink:href="#linear-gradient-11"/><linearGradient id="linear-gradient-61" x1="185.06" y1="235.39" x2="196.02" y2="235.39" xlink:href="#linear-gradient-11"/><linearGradient id="linear-gradient-62" x1="222.57" y1="232.49" x2="237.49" y2="232.49" xlink:href="#linear-gradient-11"/><linearGradient id="linear-gradient-63" x1="229.8" y1="209.23" x2="238.23" y2="209.23" xlink:href="#linear-gradient-11"/><linearGradient id="linear-gradient-64" x1="216.69" y1="246.95" x2="234.31" y2="246.95" xlink:href="#linear-gradient-11"/><linearGradient id="linear-gradient-65" x1="198.51" y1="269.12" x2="238.96" y2="269.12" xlink:href="#linear-gradient-11"/><linearGradient id="linear-gradient-66" x1="198.28" y1="250.72" x2="209.6" y2="250.72" xlink:href="#linear-gradient-11"/><linearGradient id="linear-gradient-67" x1="191.69" y1="235.36" x2="218.68" y2="235.36" xlink:href="#linear-gradient-11"/><linearGradient id="linear-gradient-68" x1="195.41" y1="215.33" x2="231.05" y2="215.33" xlink:href="#linear-gradient-11"/><linearGradient id="linear-gradient-69" x1="209.47" y1="197.56" x2="238.2" y2="197.56" xlink:href="#linear-gradient-11"/><linearGradient id="linear-gradient-70" x1="124.5" y1="193.93" x2="129.21" y2="193.93" gradientUnits="userSpaceOnUse"><stop offset="0" stop-color="#fff"/><stop offset="0.14" stop-color="#edf7fb"/><stop offset="0.43" stop-color="#bee2f1"/><stop offset="0.83" stop-color="#73c1e0"/><stop offset="1" stop-color="#51b2d9"/></linearGradient><linearGradient id="linear-gradient-71" x1="108.05" y1="227.33" x2="186.99" y2="227.33" xlink:href="#linear-gradient-11"/><linearGradient id="linear-gradient-72" x1="133.38" y1="217.7" x2="191.92" y2="217.7" xlink:href="#linear-gradient-11"/><linearGradient id="linear-gradient-73" x1="182.83" y1="232.85" x2="277.89" y2="232.85" xlink:href="#linear-gradient-11"/></defs><g id="Group-13"><g id="Group-Copy"><path class="cls-1" d="M162.8,190.18c-12.89-.85-29,27.4-29,27.4a88.6,88.6,0,0,1-1.12-18.25c1-25.14,12.38-53,37.36-81.44C196,87.53,212.74,75.3,206.7,24.33c38.86,65.55,22,106.86.43,142.2"/><path id="Shape" class="cls-2" d="M108.29,197.63c-2.11-22.95,5.65-48,31.42-70,27.45-24.45,35-29.4,40.63-35.58-31.66,32.7-57,69.91-55.21,111.17"/><path class="cls-3" d="M185.08,230.6a104.17,104.17,0,0,1,9.07-22c17.21-32.16,47.44-62.74,44.4-107.79,11.51,16.06,28.28,55.44,24.9,95.09a106.37,106.37,0,0,1-5.15,25.17,93.94,93.94,0,0,1-7.53,16.72c9.06-5.64,22.24-18.27,27.32-32-1.47,16.58-6.53,41.76-24.48,60.09"/><path id="Shape-2" data-name="Shape" class="cls-4" d="M198.6,283.3c-23.77-52.37,20.56-63.68,39.54-106.61,1.51,25.42.55,58.8-21.28,87.24,9.06-1.51,14.69-4.53,22.24-9.62C234,265.17,224.41,278.77,198.6,283.3Z"/><path id="Shape-3" data-name="Shape" class="cls-5" d="M173.06,270.39C101.22,165.8,204.88,160.57,214.8,76.26,229.63,166.09,137.79,189.41,173.06,270.39Z"/><path id="Shape-4" data-name="Shape" class="cls-6" d="M227.57,29.28c28.76,70.26-131.86,152.26-48.19,248.53C81.48,166,236.82,130.8,227.57,29.28Z"/></g></g><g id="Line_Blue"><line class="cls-7" x1="108.88" y1="203.07" x2="127.53" y2="245.28"/><line class="cls-8" x1="113.46" y1="220.87" x2="147.03" y2="263.6"/><line class="cls-9" x1="111.26" y1="168.48" x2="108.88" y2="203.07"/><line class="cls-10" x1="128.55" y1="138.68" x2="108.37" y2="186.28"/><line class="cls-11" x1="129.06" y1="170.2" x2="125.3" y2="207.36"/><line class="cls-12" x1="124.66" y1="192.25" x2="132.11" y2="235.79"/><line class="cls-13" x1="136.44" y1="224.46" x2="171.45" y2="268.68"/><line class="cls-14" x1="146.69" y1="250.37" x2="186.79" y2="286.05"/><line class="cls-15" x1="142.56" y1="159.64" x2="133.51" y2="206.76"/><line class="cls-16" x1="133.47" y1="189.67" x2="135.67" y2="224.6"/><line class="cls-17" x1="146.69" y1="198.35" x2="155.6" y2="243.49"/><line class="cls-18" x1="154.15" y1="177.63" x2="148.05" y2="224.26"/><line class="cls-19" x1="164.49" y1="156.78" x2="147.54" y2="198.32"/><line class="cls-20" x1="180.6" y1="136.09" x2="153.98" y2="176.96"/><line class="cls-21" x1="159.92" y1="190.01" x2="156.64" y2="231.82"/><line class="cls-22" x1="155.34" y1="210.53" x2="163.61" y2="253.83"/><line class="cls-23" x1="127.48" y1="244.43" x2="108.88" y2="203.07"/><line class="cls-24" x1="191.79" y1="190.35" x2="172.12" y2="238.16"/><line class="cls-25" x1="178.23" y1="215.61" x2="173.31" y2="256.47"/><line class="cls-26" x1="172.12" y1="238.16" x2="186.79" y2="286.05"/><line class="cls-27" x1="172.24" y1="202.41" x2="166.87" y2="252.58"/><line class="cls-28" x1="165.34" y1="224.94" x2="179.38" y2="277.81"/><line class="cls-29" x1="221.29" y1="139.44" x2="178.23" y2="215.61"/><line class="cls-30" x1="262.16" y1="204.42" x2="250.77" y2="237.83"/><line class="cls-31" x1="277.58" y1="207.14" x2="250.77" y2="237.83"/><line class="cls-32" x1="271.31" y1="236.98" x2="243.51" y2="273.94"/><line class="cls-33" x1="216.55" y1="286.65" x2="253.29" y2="265.26"/><line class="cls-34" x1="195.99" y1="288.94" x2="242.49" y2="274.28"/><line class="cls-35" x1="185.21" y1="266.35" x2="195.99" y2="288.94"/><line class="cls-36" x1="182.98" y1="242.91" x2="190.71" y2="277.68"/><line class="cls-37" x1="187.72" y1="221.89" x2="185.21" y2="265.6"/><line class="cls-38" x1="195.87" y1="205.17" x2="182.98" y2="242.91"/><line class="cls-39" x1="205.86" y1="217.99" x2="195.87" y2="205.17"/><line class="cls-40" x1="199.76" y1="215.1" x2="209.59" y2="217.82"/><line class="cls-41" x1="238.14" y1="176.69" x2="234.17" y2="229.6"/><line class="cls-42" x1="230.93" y1="191.14" x2="209.59" y2="217.82"/><line class="cls-43" x1="218.27" y1="209.11" x2="238.26" y2="178"/><line class="cls-44" x1="236.7" y1="210.01" x2="229.95" y2="241.16"/><line class="cls-45" x1="234.18" y1="230.53" x2="223.47" y2="254.75"/><line class="cls-46" x1="229.95" y1="241.92" x2="216.86" y2="263.93"/><line class="cls-47" x1="195.35" y1="239.18" x2="219.03" y2="208.35"/><line class="cls-48" x1="209.59" y1="217.82" x2="192.58" y2="262.23"/><line class="cls-49" x1="195.53" y1="240.26" x2="198.6" y2="283.3"/><line class="cls-50" x1="198.61" y1="282.35" x2="230.13" y2="268.04"/><line class="cls-51" x1="239.1" y1="254.31" x2="217.63" y2="263.71"/><line class="cls-52" x1="195.99" y1="288.94" x2="253.29" y2="265.26"/><line class="cls-53" x1="270.98" y1="237.35" x2="216.55" y2="286.65"/><line class="cls-54" x1="243.24" y1="274.06" x2="277.98" y2="207.41"/><line class="cls-55" x1="195.99" y1="288.94" x2="182.23" y2="242.88"/><line class="cls-56" x1="187.72" y1="221.89" x2="190.4" y2="277.08"/><line class="cls-57" x1="195.87" y1="205.17" x2="185.21" y2="265.6"/><line class="cls-58" x1="237.35" y1="210.22" x2="222.71" y2="254.75"/><line class="cls-59" x1="238.08" y1="177.29" x2="229.95" y2="241.16"/><line class="cls-60" x1="234.18" y1="230.53" x2="216.82" y2="263.36"/><line class="cls-61" x1="238.87" y1="254.93" x2="198.6" y2="283.3"/><line class="cls-62" x1="209.46" y1="218.56" x2="198.43" y2="282.87"/><line class="cls-63" x1="218.55" y1="208.5" x2="191.82" y2="262.23"/><line class="cls-64" x1="230.93" y1="191.14" x2="195.53" y2="239.51"/><line class="cls-65" x1="238.08" y1="177.29" x2="209.59" y2="217.82"/><path class="cls-66" d="M129.06,170.2l-4.41,22.69c0,6.06.72,18.9,2,24.76"/><path class="cls-67" d="M132.62,206.8l3,17.8-3.56,10.34L127,218.5l8.65,6.1,11,25.77,17.8,20.35c.6.08,21.55,15.79,22.3,15.33l-13.48-29.58-1.19-18.31,6.11-22.55c-5.86-15.43-6.42-14.79-18.31-25.6-.39,1.25-4.28,19.41-4.58,20.52l1.19,22.21c2.73,9.33,9.91,27.64,14.92,35.94-10.33-7.07-31.43-23.33-39.34-32.89l15.69,28.28-.77-.47-19.5-18.32c-.17-.36-13.86-24.05-14.07-24.41l-.34-1.19-4.24-16.61-.51-16.79-.17-.68,3.06-17.12"/><path class="cls-68" d="M191.79,190.35l-13.56,25.26-5.94-14.07-6.95,22.38v1l1.53,27.64,12.51,25.23c-12.41-13.57-25.75-36-31.33-53.55l-.51-25.94,11.87-9-5.26-11.7,10.34-20.85L154,176.28V177l-6.44,21.36-9.67,2-.67-.17-3.68-10.06"/><path class="cls-69" d="M262.16,204.42c-.06.22-4.46,18.75-4.51,18.94s-7,14.44-6.75,14.76l14.5-12.52,12.18-18.46L271.31,237l-11.7,21.7-16.1,15.26-1,.34-25.94,12.37h-.68L196,288.94c-10.58-17.74-11.63-26-13-46l4.74-21,8.14-17.13c-.59.29,3.78,9.87,3.9,10.34.42.18,5.75,3,6.1,2.89l3.73-.17c10-10.5,22.63-27.18,28.49-40.53.21,12.93-.6,40.89-3.9,53.24-4.16,10.3-10,24.84-17.32,33.4l9.52-1.69,11.87-7.12c-7.29,13.34-7,13-19.67,21.36h-.68l-19.3,6.82c-8.63-25.11-6.93-18.74-3.25-44.12l14.24-21.36"/></g><g id="Dots"><circle class="cls-70" cx="111.22" cy="168.59" r="0.76"/><circle class="cls-70" cx="129.1" cy="170.14" r="0.76"/><circle class="cls-70" cx="108.33" cy="185.81" r="0.76"/><circle class="cls-70" cx="126.19" cy="186.78" r="0.76"/><circle class="cls-70" cx="124.66" cy="193.01" r="0.76"/><circle class="cls-70" cx="108.96" cy="203.12" r="0.76"/><circle class="cls-70" cx="125.3" cy="207.36" r="0.76"/><circle class="cls-70" cx="113.17" cy="220.37" r="0.76"/><circle class="cls-70" cx="126.89" cy="218.06" r="0.76"/><circle class="cls-70" cx="132.76" cy="206.76" r="0.76"/><circle class="cls-70" cx="135.68" cy="224.46" r="0.76"/><circle class="cls-70" cx="132.16" cy="235.4" r="0.76"/><circle class="cls-70" cx="146.62" cy="250.15" r="0.76"/><circle class="cls-70" cx="127.48" cy="245.19" r="0.76"/><circle class="cls-70" cx="147.36" cy="263.75" r="0.76"/><circle class="cls-70" cx="163.61" cy="253.07" r="0.76"/><circle class="cls-70" cx="166.77" cy="252.48" r="0.76"/><circle class="cls-70" cx="173.32" cy="256.53" r="0.76"/><circle class="cls-70" cx="155.6" cy="243.49" r="0.76"/><circle class="cls-70" cx="169.25" cy="265.41" r="0.76"/><circle class="cls-70" cx="171.5" cy="268.4" r="0.76"/><circle class="cls-70" cx="164.38" cy="270.71" r="0.76"/><circle class="cls-70" cx="179.17" cy="277.4" r="0.76"/><circle class="cls-70" cx="189.96" cy="277.68" r="0.76"/><circle class="cls-70" cx="186.46" cy="285.92" r="0.76"/><circle class="cls-70" cx="195.85" cy="288.95" r="0.76"/><circle class="cls-70" cx="198.61" cy="283.1" r="0.76"/><circle class="cls-70" cx="218.27" cy="276.45" r="0.76"/><circle class="cls-70" cx="216.43" cy="286.81" r="0.76"/><circle class="cls-70" cx="230.88" cy="268.04" r="0.76"/><circle class="cls-70" cx="226.48" cy="262.29" r="0.76"/><circle class="cls-70" cx="243.24" cy="274.06" r="0.76"/><circle class="cls-70" cx="223.47" cy="254.75" r="0.76"/><circle class="cls-70" cx="216.87" cy="263.71" r="0.76"/><circle class="cls-70" cx="238.79" cy="254.68" r="0.76"/><circle class="cls-70" cx="229.95" cy="241.16" r="0.76"/><circle class="cls-70" cx="253.29" cy="265.26" r="0.76"/><circle class="cls-70" cx="234.17" cy="230.35" r="0.76"/><circle class="cls-70" cx="250.77" cy="237.95" r="0.76"/><circle class="cls-70" cx="271.41" cy="236.88" r="0.76"/><circle class="cls-70" cx="265.54" cy="225.65" r="0.76"/><circle class="cls-70" cx="257.77" cy="223.22" r="0.76"/><circle class="cls-70" cx="277.98" cy="206.66" r="0.76"/><circle class="cls-70" cx="262.17" cy="204.26" r="0.76"/><circle class="cls-70" cx="238.26" cy="177.24" r="0.76"/><circle class="cls-70" cx="230.93" cy="191.14" r="0.76"/><circle class="cls-70" cx="237.45" cy="210.01" r="0.76"/><circle class="cls-70" cx="218.27" cy="208.35" r="0.76"/><circle class="cls-70" cx="209.46" cy="217.81" r="0.76"/><circle class="cls-70" cx="205.13" cy="217.87" r="0.76"/><circle class="cls-70" cx="199.58" cy="215.03" r="0.76"/><circle class="cls-70" cx="195.87" cy="205.17" r="0.76"/><circle class="cls-70" cx="195.53" cy="239.51" r="0.76"/><circle class="cls-70" cx="187.73" cy="221.83" r="0.76"/><circle class="cls-70" cx="182.99" cy="242.88" r="0.76"/><circle class="cls-70" cx="185.21" cy="265.6" r="0.76"/><circle class="cls-70" cx="191.82" cy="262.23" r="0.76"/><circle class="cls-70" cx="165.44" cy="224.21" r="0.76"/><circle class="cls-70" cx="156.64" cy="232.58" r="0.76"/><circle class="cls-70" cx="148.29" cy="224.21" r="0.76"/><circle class="cls-70" cx="178.32" cy="215.5" r="0.76"/><circle class="cls-70" cx="172.24" cy="201.66" r="0.76"/><circle class="cls-70" cx="159.59" cy="190.02" r="0.76"/><circle class="cls-70" cx="147.44" cy="198.35" r="0.76"/><circle class="cls-70" cx="154.1" cy="177.24" r="0.76"/><circle class="cls-70" cx="191.87" cy="190.3" r="0.76"/><circle class="cls-70" cx="164.59" cy="156.75" r="0.76"/><circle class="cls-70" cx="155.4" cy="210.58" r="0.76"/><circle class="cls-70" cx="137.24" cy="200.25" r="0.76"/><circle class="cls-70" cx="133.48" cy="189.97" r="0.76"/><circle class="cls-70" cx="250.12" cy="122.57" r="0.76"/><circle class="cls-70" cx="221.29" cy="139.44" r="0.76"/><circle class="cls-70" cx="196.43" cy="160.23" r="0.76"/><circle class="cls-70" cx="128.55" cy="138.68" r="0.76"/><circle class="cls-70" cx="142.56" cy="159.64" r="0.76"/><circle class="cls-70" cx="180.6" cy="136.09" r="0.76"/></g><line class="cls-71" x1="172.29" y1="201.54" x2="185.41" y2="178.26"/><path class="cls-72" d="M83.82,308h8.76a2.65,2.65,0,0,1,1.8,4.57,2.65,2.65,0,0,1-1.81.77H84.21a2.6,2.6,0,0,0-2.13,1.14L74.68,324a4.74,4.74,0,0,0-.93,3.14v14.59a2.6,2.6,0,0,0,.77,1.92,2.51,2.51,0,0,0,1.86.78H87.12a2.66,2.66,0,0,0,2.63-2.63v-5.71H84.29a2.53,2.53,0,0,1-1.88-.77,2.71,2.71,0,0,1,0-3.74,2.53,2.53,0,0,1,1.88-.77H95v11a7.94,7.94,0,0,1-7.9,7.91H76.38a7.71,7.71,0,0,1-5.63-2.33,7.57,7.57,0,0,1-2.34-5.58V327.2a10.37,10.37,0,0,1,2.11-6.62l7.78-9.89a7.33,7.33,0,0,1,5.52-2.7Z"/><path class="cls-72" d="M107.42,347.06V308h18.64a8,8,0,0,1,7.91,8v3a7.72,7.72,0,0,1-2.33,5.64,7.57,7.57,0,0,1-5.58,2.34H122.7l10.77,18.51a3.13,3.13,0,0,1,.5,1.63,2.48,2.48,0,0,1-.82,1.84,2.67,2.67,0,0,1-1.86.77,2.61,2.61,0,0,1-2.39-1.41L116.56,327h-3.81v20.11a2.49,2.49,0,0,1-.8,1.87,2.64,2.64,0,0,1-1.9.77,2.63,2.63,0,0,1-2.63-2.64Zm5.27-25.39h13.37a2.61,2.61,0,0,0,2.63-2.63V316a2.61,2.61,0,0,0-2.63-2.63H112.69Z"/><path class="cls-72" d="M146.33,346,156.94,310a2.59,2.59,0,0,1,2.67-2,2.29,2.29,0,0,1,2.47,1.66l10.51,36.63a2.45,2.45,0,0,1,.13.78,2.6,2.6,0,0,1-.75,1.87,2.38,2.38,0,0,1-1.73.77,2.47,2.47,0,0,1-2.63-1.92l-2.09-7.15H153.45l-2.29,7.66a1.63,1.63,0,0,1-.79.95,2.66,2.66,0,0,1-1.52.46,2.57,2.57,0,0,1-1.92-.79,2.62,2.62,0,0,1-.76-1.91A3.14,3.14,0,0,1,146.33,346Zm13.24-25.82-4.52,15.09H164Z"/><path class="cls-72" d="M185,347.06V308h18.7a7.58,7.58,0,0,1,5.57,2.36A7.67,7.67,0,0,1,211.6,316v9.89a7.92,7.92,0,0,1-7.91,7.9H190.32v13.31a2.63,2.63,0,0,1-2.63,2.64,2.67,2.67,0,0,1-1.92-.77A2.55,2.55,0,0,1,185,347.06Zm5.33-18.58h13.37a2.52,2.52,0,0,0,1.85-.77,2.48,2.48,0,0,0,.79-1.86V316a2.48,2.48,0,0,0-.79-1.86,2.52,2.52,0,0,0-1.85-.77H190.32Z"/><path class="cls-72" d="M223.68,347.06V310.63a2.56,2.56,0,0,1,.77-1.85,2.49,2.49,0,0,1,1.87-.79,2.68,2.68,0,0,1,2.63,2.64v15.53H245V310.63a2.52,2.52,0,0,1,.77-1.85,2.6,2.6,0,0,1,3.73,0,2.63,2.63,0,0,1,.77,1.91v36.37a2.52,2.52,0,0,1-.8,1.85,2.57,2.57,0,0,1-1.84.79,2.53,2.53,0,0,1-1.88-.77,2.6,2.6,0,0,1-.75-1.87V331.43H229v15.63a2.49,2.49,0,0,1-.81,1.85,2.62,2.62,0,0,1-1.89.79,2.59,2.59,0,0,1-1.86-.77A2.55,2.55,0,0,1,223.68,347.06Z"/><path class="cls-72" d="M265.19,308h21.34a2.72,2.72,0,0,1,2.64,2.64,2.62,2.62,0,0,1-.79,1.9,2.52,2.52,0,0,1-1.85.8h-8v31.09h8a2.54,2.54,0,0,1,1.87.77,2.58,2.58,0,0,1,.77,1.87,2.52,2.52,0,0,1-.79,1.87,2.56,2.56,0,0,1-1.85.77H265.19a2.64,2.64,0,0,1,0-5.28h8.1V313.33h-8.1a2.48,2.48,0,0,1-1.86-.79,2.52,2.52,0,0,1-.77-1.85,2.59,2.59,0,0,1,.77-1.91A2.48,2.48,0,0,1,265.19,308Z"/><path class="cls-72" d="M301.5,347.06V308h18.64a7.58,7.58,0,0,1,5.57,2.36,7.67,7.67,0,0,1,2.34,5.61v3a7.75,7.75,0,0,1-2.32,5.64,7.59,7.59,0,0,1-5.59,2.34h-3.36l10.77,18.51a3.13,3.13,0,0,1,.5,1.63,2.48,2.48,0,0,1-.82,1.84,2.65,2.65,0,0,1-1.86.77,2.59,2.59,0,0,1-2.38-1.41L310.64,327h-3.8v20.11a2.53,2.53,0,0,1-.8,1.87,2.68,2.68,0,0,1-1.9.77,2.54,2.54,0,0,1-1.87-.77A2.58,2.58,0,0,1,301.5,347.06Zm5.27-25.39h13.37a2.63,2.63,0,0,0,2.64-2.63V316a2.63,2.63,0,0,0-2.64-2.63H306.77Z"/><circle class="cls-73" cx="172.32" cy="237.96" r="0.76"/></svg>