<svg id="Layer_1" data-name="Layer 1" xmlns="http://www.w3.org/2000/svg" xmlns:xlink="http://www.w3.org/1999/xlink" viewBox="0 0 401.88 383.63"><defs><style>.cls-1,.cls-10,.cls-100,.cls-101,.cls-102,.cls-103,.cls-104,.cls-105,.cls-106,.cls-107,.cls-108,.cls-109,.cls-11,.cls-110,.cls-111,.cls-112,.cls-113,.cls-114,.cls-115,.cls-116,.cls-117,.cls-118,.cls-119,.cls-12,.cls-120,.cls-121,.cls-122,.cls-123,.cls-124,.cls-125,.cls-126,.cls-127,.cls-128,.cls-129,.cls-13,.cls-130,.cls-131,.cls-132,.cls-133,.cls-134,.cls-135,.cls-136,.cls-137,.cls-138,.cls-139,.cls-14,.cls-140,.cls-141,.cls-142,.cls-143,.cls-144,.cls-145,.cls-148,.cls-15,.cls-16,.cls-17,.cls-18,.cls-19,.cls-2,.cls-20,.cls-21,.cls-22,.cls-23,.cls-24,.cls-25,.cls-26,.cls-27,.cls-28,.cls-29,.cls-3,.cls-30,.cls-31,.cls-32,.cls-33,.cls-34,.cls-35,.cls-36,.cls-37,.cls-38,.cls-39,.cls-4,.cls-40,.cls-41,.cls-42,.cls-43,.cls-44,.cls-45,.cls-46,.cls-47,.cls-48,.cls-49,.cls-5,.cls-50,.cls-51,.cls-52,.cls-53,.cls-54,.cls-55,.cls-56,.cls-57,.cls-58,.cls-59,.cls-6,.cls-60,.cls-61,.cls-62,.cls-63,.cls-64,.cls-65,.cls-66,.cls-67,.cls-68,.cls-69,.cls-7,.cls-70,.cls-71,.cls-72,.cls-73,.cls-74,.cls-75,.cls-76,.cls-77,.cls-78,.cls-79,.cls-8,.cls-80,.cls-81,.cls-82,.cls-83,.cls-84,.cls-85,.cls-86,.cls-87,.cls-88,.cls-89,.cls-9,.cls-90,.cls-91,.cls-92,.cls-93,.cls-94,.cls-95,.cls-96,.cls-97,.cls-98,.cls-99{stroke-miterlimit:10;}.cls-1,.cls-10,.cls-11,.cls-12,.cls-13,.cls-14,.cls-15,.cls-16,.cls-17,.cls-18,.cls-19,.cls-2,.cls-20,.cls-21,.cls-22,.cls-23,.cls-24,.cls-25,.cls-26,.cls-27,.cls-28,.cls-29,.cls-3,.cls-30,.cls-31,.cls-32,.cls-33,.cls-34,.cls-35,.cls-36,.cls-37,.cls-38,.cls-39,.cls-4,.cls-40,.cls-41,.cls-42,.cls-43,.cls-44,.cls-45,.cls-46,.cls-47,.cls-48,.cls-49,.cls-5,.cls-50,.cls-51,.cls-52,.cls-53,.cls-54,.cls-55,.cls-56,.cls-57,.cls-58,.cls-59,.cls-6,.cls-60,.cls-61,.cls-62,.cls-63,.cls-64,.cls-65,.cls-66,.cls-67,.cls-68,.cls-69,.cls-7,.cls-8,.cls-9{stroke-width:0.3px;}.cls-1{fill:url(#linear-gradient);stroke:url(#linear-gradient-2);}.cls-2{fill:url(#linear-gradient-3);stroke:url(#linear-gradient-4);}.cls-3{fill:url(#linear-gradient-5);stroke:url(#linear-gradient-6);}.cls-4{fill:url(#linear-gradient-7);stroke:url(#linear-gradient-8);}.cls-5{fill:url(#linear-gradient-9);stroke:url(#linear-gradient-10);}.cls-6{fill:url(#linear-gradient-11);stroke:url(#linear-gradient-12);}.cls-10,.cls-11,.cls-12,.cls-13,.cls-14,.cls-146,.cls-15,.cls-16,.cls-17,.cls-18,.cls-19,.cls-20,.cls-21,.cls-22,.cls-23,.cls-24,.cls-25,.cls-26,.cls-27,.cls-28,.cls-29,.cls-30,.cls-31,.cls-32,.cls-33,.cls-34,.cls-35,.cls-36,.cls-37,.cls-38,.cls-39,.cls-40,.cls-41,.cls-42,.cls-43,.cls-44,.cls-45,.cls-46,.cls-47,.cls-48,.cls-49,.cls-50,.cls-51,.cls-52,.cls-53,.cls-54,.cls-55,.cls-56,.cls-57,.cls-58,.cls-59,.cls-60,.cls-61,.cls-62,.cls-63,.cls-64,.cls-65,.cls-66,.cls-67,.cls-68,.cls-69,.cls-7,.cls-8,.cls-9{fill:none;}.cls-7{stroke:url(#linear-gradient-13);}.cls-8{stroke:url(#linear-gradient-14);}.cls-9{stroke:url(#linear-gradient-15);}.cls-10{stroke:url(#linear-gradient-16);}.cls-11{stroke:url(#linear-gradient-17);}.cls-12{stroke:url(#linear-gradient-18);}.cls-13{stroke:url(#linear-gradient-19);}.cls-14{stroke:url(#linear-gradient-20);}.cls-15{stroke:url(#linear-gradient-21);}.cls-16{stroke:url(#linear-gradient-22);}.cls-17{stroke:url(#linear-gradient-23);}.cls-18{stroke:url(#linear-gradient-24);}.cls-19{stroke:url(#linear-gradient-25);}.cls-20{stroke:url(#linear-gradient-26);}.cls-21{stroke:url(#linear-gradient-27);}.cls-22{stroke:url(#linear-gradient-28);}.cls-23{stroke:url(#linear-gradient-29);}.cls-24{stroke:url(#linear-gradient-30);}.cls-25{stroke:url(#linear-gradient-31);}.cls-26{stroke:url(#linear-gradient-32);}.cls-27{stroke:url(#linear-gradient-33);}.cls-28{stroke:url(#linear-gradient-34);}.cls-29{stroke:url(#linear-gradient-35);}.cls-30{stroke:url(#linear-gradient-36);}.cls-31{stroke:url(#linear-gradient-37);}.cls-32{stroke:url(#linear-gradient-38);}.cls-33{stroke:url(#linear-gradient-39);}.cls-34{stroke:url(#linear-gradient-40);}.cls-35{stroke:url(#linear-gradient-41);}.cls-36{stroke:url(#linear-gradient-42);}.cls-37{stroke:url(#linear-gradient-43);}.cls-38{stroke:url(#linear-gradient-44);}.cls-39{stroke:url(#linear-gradient-45);}.cls-40{stroke:url(#linear-gradient-46);}.cls-41{stroke:url(#linear-gradient-47);}.cls-42{stroke:url(#linear-gradient-48);}.cls-43{stroke:url(#linear-gradient-49);}.cls-44{stroke:url(#linear-gradient-50);}.cls-45{stroke:url(#linear-gradient-51);}.cls-46{stroke:url(#linear-gradient-52);}.cls-47{stroke:url(#linear-gradient-53);}.cls-48{stroke:url(#linear-gradient-54);}.cls-49{stroke:url(#linear-gradient-55);}.cls-50{stroke:url(#linear-gradient-56);}.cls-51{stroke:url(#linear-gradient-57);}.cls-52{stroke:url(#linear-gradient-58);}.cls-53{stroke:url(#linear-gradient-59);}.cls-54{stroke:url(#linear-gradient-60);}.cls-55{stroke:url(#linear-gradient-61);}.cls-56{stroke:url(#linear-gradient-62);}.cls-57{stroke:url(#linear-gradient-63);}.cls-58{stroke:url(#linear-gradient-64);}.cls-59{stroke:url(#linear-gradient-65);}.cls-60{stroke:url(#linear-gradient-66);}.cls-61{stroke:url(#linear-gradient-67);}.cls-62{stroke:url(#linear-gradient-68);}.cls-63{stroke:url(#linear-gradient-69);}.cls-64{stroke:url(#linear-gradient-70);}.cls-65{stroke:url(#linear-gradient-71);}.cls-66{stroke:url(#linear-gradient-72);}.cls-67{stroke:url(#linear-gradient-73);}.cls-68{stroke:url(#linear-gradient-74);}.cls-69{stroke:url(#linear-gradient-75);}.cls-100,.cls-101,.cls-102,.cls-103,.cls-104,.cls-105,.cls-106,.cls-107,.cls-108,.cls-109,.cls-110,.cls-111,.cls-112,.cls-113,.cls-114,.cls-115,.cls-116,.cls-117,.cls-118,.cls-119,.cls-120,.cls-121,.cls-122,.cls-123,.cls-124,.cls-125,.cls-126,.cls-127,.cls-128,.cls-129,.cls-130,.cls-131,.cls-132,.cls-133,.cls-134,.cls-135,.cls-136,.cls-137,.cls-138,.cls-139,.cls-140,.cls-141,.cls-142,.cls-143,.cls-144,.cls-145,.cls-70,.cls-71,.cls-72,.cls-73,.cls-74,.cls-75,.cls-76,.cls-77,.cls-78,.cls-79,.cls-80,.cls-81,.cls-82,.cls-83,.cls-84,.cls-85,.cls-86,.cls-87,.cls-88,.cls-89,.cls-90,.cls-91,.cls-92,.cls-93,.cls-94,.cls-95,.cls-96,.cls-97,.cls-98,.cls-99{stroke:#79b5c4;stroke-width:0.5px;}.cls-70{fill:url(#linear-gradient-76);}.cls-71{fill:url(#linear-gradient-77);}.cls-72{fill:url(#linear-gradient-78);}.cls-73{fill:url(#linear-gradient-79);}.cls-74{fill:url(#linear-gradient-80);}.cls-75{fill:url(#linear-gradient-81);}.cls-76{fill:url(#linear-gradient-82);}.cls-77{fill:url(#linear-gradient-83);}.cls-78{fill:url(#linear-gradient-84);}.cls-79{fill:url(#linear-gradient-85);}.cls-80{fill:url(#linear-gradient-86);}.cls-81{fill:url(#linear-gradient-87);}.cls-82{fill:url(#linear-gradient-88);}.cls-83{fill:url(#linear-gradient-89);}.cls-84{fill:url(#linear-gradient-90);}.cls-85{fill:url(#linear-gradient-91);}.cls-86{fill:url(#linear-gradient-92);}.cls-87{fill:url(#linear-gradient-93);}.cls-88{fill:url(#linear-gradient-94);}.cls-89{fill:url(#linear-gradient-95);}.cls-90{fill:url(#linear-gradient-96);}.cls-91{fill:url(#linear-gradient-97);}.cls-92{fill:url(#linear-gradient-98);}.cls-93{fill:url(#linear-gradient-99);}.cls-94{fill:url(#linear-gradient-100);}.cls-95{fill:url(#linear-gradient-101);}.cls-96{fill:url(#linear-gradient-102);}.cls-97{fill:url(#linear-gradient-103);}.cls-98{fill:url(#linear-gradient-104);}.cls-99{fill:url(#linear-gradient-105);}.cls-100{fill:url(#linear-gradient-106);}.cls-101{fill:url(#linear-gradient-107);}.cls-102{fill:url(#linear-gradient-108);}.cls-103{fill:url(#linear-gradient-109);}.cls-104{fill:url(#linear-gradient-110);}.cls-105{fill:url(#linear-gradient-111);}.cls-106{fill:url(#linear-gradient-112);}.cls-107{fill:url(#linear-gradient-113);}.cls-108{fill:url(#linear-gradient-114);}.cls-109{fill:url(#linear-gradient-115);}.cls-110{fill:url(#linear-gradient-116);}.cls-111{fill:url(#linear-gradient-117);}.cls-112{fill:url(#linear-gradient-118);}.cls-113{fill:url(#linear-gradient-119);}.cls-114{fill:url(#linear-gradient-120);}.cls-115{fill:url(#linear-gradient-121);}.cls-116{fill:url(#linear-gradient-122);}.cls-117{fill:url(#linear-gradient-123);}.cls-118{fill:url(#linear-gradient-124);}.cls-119{fill:url(#linear-gradient-125);}.cls-120{fill:url(#linear-gradient-126);}.cls-121{fill:url(#linear-gradient-127);}.cls-122{fill:url(#linear-gradient-128);}.cls-123{fill:url(#linear-gradient-129);}.cls-124{fill:url(#linear-gradient-130);}.cls-125{fill:url(#linear-gradient-131);}.cls-126{fill:url(#linear-gradient-132);}.cls-127{fill:url(#linear-gradient-133);}.cls-128{fill:url(#linear-gradient-134);}.cls-129{fill:url(#linear-gradient-135);}.cls-130{fill:url(#linear-gradient-136);}.cls-131{fill:url(#linear-gradient-137);}.cls-132{fill:url(#linear-gradient-138);}.cls-133{fill:url(#linear-gradient-139);}.cls-134{fill:url(#linear-gradient-140);}.cls-135{fill:url(#linear-gradient-141);}.cls-136{fill:url(#linear-gradient-142);}.cls-137{fill:url(#linear-gradient-143);}.cls-138{fill:url(#linear-gradient-144);}.cls-139{fill:url(#linear-gradient-145);}.cls-140{fill:url(#linear-gradient-146);}.cls-141{fill:url(#linear-gradient-147);}.cls-142{fill:url(#linear-gradient-148);}.cls-143{fill:url(#linear-gradient-149);}.cls-144{fill:url(#linear-gradient-150);}.cls-145{fill:url(#linear-gradient-151);}.cls-147{fill:#73cae4;}.cls-148{fill:#fff;stroke:#00a8d4;stroke-width:0.1px;}</style><linearGradient id="linear-gradient" x1="160.51" y1="314.87" x2="227.03" y2="-210.54" gradientUnits="userSpaceOnUse"><stop offset="0" stop-color="#00a8d4"/><stop offset="0.48" stop-color="#c6ecf5" stop-opacity="0.22"/><stop offset="0.61" stop-color="#fff" stop-opacity="0"/></linearGradient><linearGradient id="linear-gradient-2" x1="132.46" y1="120.83" x2="230.13" y2="120.83" gradientUnits="userSpaceOnUse"><stop offset="0" stop-color="#fff" stop-opacity="0"/><stop offset="0.11" stop-color="#effafc" stop-opacity="0.06"/><stop offset="0.3" stop-color="#c5ebf5" stop-opacity="0.23"/><stop offset="0.57" stop-color="#80d4ea" stop-opacity="0.5"/><stop offset="0.89" stop-color="#23b4da" stop-opacity="0.86"/><stop offset="1" stop-color="#00a8d4"/></linearGradient><linearGradient id="linear-gradient-3" x1="124.17" y1="296.76" x2="182.41" y2="-163.24" gradientUnits="userSpaceOnUse"><stop offset="0.22" stop-color="#fff" stop-opacity="0"/><stop offset="0.26" stop-color="#e7f7fb" stop-opacity="0.09"/><stop offset="0.34" stop-color="#aae2f1" stop-opacity="0.33"/><stop offset="0.45" stop-color="#48c1e0" stop-opacity="0.72"/><stop offset="0.53" stop-color="#00a8d4"/></linearGradient><linearGradient id="linear-gradient-4" x1="107.81" y1="147.6" x2="180.45" y2="147.6" xlink:href="#linear-gradient-2"/><linearGradient id="linear-gradient-5" x1="231.58" y1="265.91" x2="231.58" y2="100.85" gradientUnits="userSpaceOnUse"><stop offset="0.28" stop-color="#fff" stop-opacity="0"/><stop offset="0.96" stop-color="#2eb0dd" stop-opacity="0.95"/><stop offset="1" stop-color="#22acdb"/></linearGradient><linearGradient id="linear-gradient-6" x1="184.93" y1="183.17" x2="278.34" y2="183.17" xlink:href="#linear-gradient-2"/><linearGradient id="linear-gradient-7" x1="215.43" y1="283.3" x2="215.43" y2="176.69" gradientUnits="userSpaceOnUse"><stop offset="0" stop-color="#fff" stop-opacity="0"/><stop offset="0.1" stop-color="#f2fbfd" stop-opacity="0.05"/><stop offset="0.27" stop-color="#d0eff7" stop-opacity="0.18"/><stop offset="0.49" stop-color="#98dcee" stop-opacity="0.4"/><stop offset="0.76" stop-color="#4cc2e1" stop-opacity="0.7"/><stop offset="1" stop-color="#00a8d4"/></linearGradient><linearGradient id="linear-gradient-8" x1="191.61" y1="229.77" x2="239.46" y2="229.77" xlink:href="#linear-gradient-2"/><linearGradient id="linear-gradient-9" x1="182.15" y1="270.39" x2="182.15" y2="76.26" gradientUnits="userSpaceOnUse"><stop offset="0" stop-color="#fff" stop-opacity="0"/><stop offset="0.09" stop-color="#eef9fc" stop-opacity="0.07"/><stop offset="0.27" stop-color="#c1eaf4" stop-opacity="0.24"/><stop offset="0.52" stop-color="#77d1e8" stop-opacity="0.53"/><stop offset="0.82" stop-color="#13afd7" stop-opacity="0.92"/><stop offset="0.87" stop-color="#00a8d4"/></linearGradient><linearGradient id="linear-gradient-10" x1="147.72" y1="172.83" x2="216.58" y2="172.83" xlink:href="#linear-gradient-2"/><linearGradient id="linear-gradient-11" x1="153.88" y1="404.43" x2="240.69" y2="-281.23" gradientUnits="userSpaceOnUse"><stop offset="0" stop-color="#00a8d4"/><stop offset="0.02" stop-color="#09abd5"/><stop offset="0.14" stop-color="#42bedf"/><stop offset="0.25" stop-color="#74d0e8"/><stop offset="0.37" stop-color="#9fdeef"/><stop offset="0.5" stop-color="#c2eaf5"/><stop offset="0.62" stop-color="#ddf3f9"/><stop offset="0.74" stop-color="#f0fafc"/><stop offset="0.87" stop-color="#fbfefe"/><stop offset="1" stop-color="#fff"/></linearGradient><linearGradient id="linear-gradient-12" x1="146.73" y1="153.1" x2="231.21" y2="153.1" xlink:href="#linear-gradient-2"/><linearGradient id="linear-gradient-13" x1="108.74" y1="224.18" x2="127.67" y2="224.18" gradientUnits="userSpaceOnUse"><stop offset="0" stop-color="#a2def9"/><stop offset="0.14" stop-color="#88d2f3"/><stop offset="0.55" stop-color="#3fb1e3"/><stop offset="0.85" stop-color="#129dd9"/><stop offset="1" stop-color="#0095d5"/></linearGradient><linearGradient id="linear-gradient-14" x1="113.34" y1="242.23" x2="147.15" y2="242.23" xlink:href="#linear-gradient-13"/><linearGradient id="linear-gradient-15" x1="108.73" y1="185.77" x2="111.4" y2="185.77" xlink:href="#linear-gradient-13"/><linearGradient id="linear-gradient-16" x1="108.23" y1="162.48" x2="128.69" y2="162.48" xlink:href="#linear-gradient-13"/><linearGradient id="linear-gradient-17" x1="125.15" y1="188.78" x2="129.21" y2="188.78" xlink:href="#linear-gradient-13"/><linearGradient id="linear-gradient-18" x1="124.51" y1="214.02" x2="132.26" y2="214.02" xlink:href="#linear-gradient-13"/><linearGradient id="linear-gradient-19" x1="136.32" y1="246.57" x2="171.56" y2="246.57" xlink:href="#linear-gradient-13"/><linearGradient id="linear-gradient-20" x1="146.59" y1="268.21" x2="186.89" y2="268.21" xlink:href="#linear-gradient-13"/><linearGradient id="linear-gradient-21" x1="133.36" y1="183.2" x2="142.71" y2="183.2" xlink:href="#linear-gradient-13"/><linearGradient id="linear-gradient-22" x1="133.32" y1="207.14" x2="135.82" y2="207.14" xlink:href="#linear-gradient-13"/><linearGradient id="linear-gradient-23" x1="146.54" y1="220.92" x2="155.75" y2="220.92" xlink:href="#linear-gradient-13"/><linearGradient id="linear-gradient-24" x1="147.9" y1="200.95" x2="154.3" y2="200.95" xlink:href="#linear-gradient-13"/><linearGradient id="linear-gradient-25" x1="147.4" y1="177.55" x2="164.63" y2="177.55" xlink:href="#linear-gradient-13"/><linearGradient id="linear-gradient-26" x1="153.86" y1="156.52" x2="180.73" y2="156.52" xlink:href="#linear-gradient-13"/><linearGradient id="linear-gradient-27" x1="156.49" y1="210.92" x2="160.07" y2="210.92" xlink:href="#linear-gradient-13"/><linearGradient id="linear-gradient-28" x1="155.19" y1="232.18" x2="163.76" y2="232.18" xlink:href="#linear-gradient-13"/><linearGradient id="linear-gradient-29" x1="108.74" y1="223.75" x2="127.62" y2="223.75" xlink:href="#linear-gradient-13"/><linearGradient id="linear-gradient-30" x1="171.99" y1="214.26" x2="191.93" y2="214.26" xlink:href="#linear-gradient-13"/><linearGradient id="linear-gradient-31" x1="173.16" y1="236.04" x2="178.38" y2="236.04" xlink:href="#linear-gradient-13"/><linearGradient id="linear-gradient-32" x1="171.98" y1="262.11" x2="186.94" y2="262.11" xlink:href="#linear-gradient-13"/><linearGradient id="linear-gradient-33" x1="166.72" y1="227.49" x2="172.39" y2="227.49" xlink:href="#linear-gradient-13"/><linearGradient id="linear-gradient-34" x1="165.2" y1="251.37" x2="179.52" y2="251.37" xlink:href="#linear-gradient-13"/><linearGradient id="linear-gradient-35" x1="178.1" y1="177.53" x2="221.42" y2="177.53" xlink:href="#linear-gradient-13"/><linearGradient id="linear-gradient-36" x1="250.63" y1="221.13" x2="262.3" y2="221.13" xlink:href="#linear-gradient-13"/><linearGradient id="linear-gradient-37" x1="250.66" y1="222.48" x2="277.7" y2="222.48" xlink:href="#linear-gradient-13"/><linearGradient id="linear-gradient-38" x1="243.39" y1="255.46" x2="271.43" y2="255.46" xlink:href="#linear-gradient-13"/><linearGradient id="linear-gradient-39" x1="216.47" y1="275.96" x2="253.36" y2="275.96" xlink:href="#linear-gradient-13"/><linearGradient id="linear-gradient-40" x1="195.95" y1="281.61" x2="242.53" y2="281.61" xlink:href="#linear-gradient-13"/><linearGradient id="linear-gradient-41" x1="185.08" y1="277.64" x2="196.13" y2="277.64" xlink:href="#linear-gradient-13"/><linearGradient id="linear-gradient-42" x1="182.83" y1="260.29" x2="190.86" y2="260.29" xlink:href="#linear-gradient-13"/><linearGradient id="linear-gradient-43" x1="185.06" y1="243.74" x2="187.87" y2="243.74" xlink:href="#linear-gradient-13"/><linearGradient id="linear-gradient-44" x1="182.83" y1="224.04" x2="196.01" y2="224.04" xlink:href="#linear-gradient-13"/><linearGradient id="linear-gradient-45" x1="195.75" y1="211.58" x2="205.98" y2="211.58" xlink:href="#linear-gradient-13"/><linearGradient id="linear-gradient-46" x1="199.72" y1="216.46" x2="209.63" y2="216.46" xlink:href="#linear-gradient-13"/><linearGradient id="linear-gradient-47" x1="234.02" y1="203.14" x2="238.29" y2="203.14" xlink:href="#linear-gradient-13"/><linearGradient id="linear-gradient-48" x1="209.48" y1="204.48" x2="231.04" y2="204.48" xlink:href="#linear-gradient-13"/><linearGradient id="linear-gradient-49" x1="218.15" y1="193.55" x2="238.39" y2="193.55" xlink:href="#linear-gradient-13"/><linearGradient id="linear-gradient-50" x1="229.81" y1="225.58" x2="236.84" y2="225.58" xlink:href="#linear-gradient-13"/><linearGradient id="linear-gradient-51" x1="223.33" y1="242.64" x2="234.32" y2="242.64" xlink:href="#linear-gradient-13"/><linearGradient id="linear-gradient-52" x1="216.73" y1="252.92" x2="230.08" y2="252.92" xlink:href="#linear-gradient-13"/><linearGradient id="linear-gradient-53" x1="195.23" y1="223.77" x2="219.15" y2="223.77" xlink:href="#linear-gradient-13"/><linearGradient id="linear-gradient-54" x1="192.44" y1="240.02" x2="209.73" y2="240.02" xlink:href="#linear-gradient-13"/><linearGradient id="linear-gradient-55" x1="195.38" y1="261.78" x2="198.75" y2="261.78" xlink:href="#linear-gradient-13"/><linearGradient id="linear-gradient-56" x1="198.54" y1="275.19" x2="230.19" y2="275.19" xlink:href="#linear-gradient-13"/><linearGradient id="linear-gradient-57" x1="217.57" y1="259.01" x2="239.16" y2="259.01" xlink:href="#linear-gradient-13"/><linearGradient id="linear-gradient-58" x1="195.93" y1="277.1" x2="253.34" y2="277.1" xlink:href="#linear-gradient-13"/><linearGradient id="linear-gradient-59" x1="216.45" y1="262" x2="271.08" y2="262" xlink:href="#linear-gradient-13"/><linearGradient id="linear-gradient-60" x1="243.11" y1="240.73" x2="278.11" y2="240.73" xlink:href="#linear-gradient-13"/><linearGradient id="linear-gradient-61" x1="182.09" y1="265.91" x2="196.14" y2="265.91" xlink:href="#linear-gradient-13"/><linearGradient id="linear-gradient-62" x1="187.57" y1="249.48" x2="190.55" y2="249.48" xlink:href="#linear-gradient-13"/><linearGradient id="linear-gradient-63" x1="185.06" y1="235.39" x2="196.02" y2="235.39" xlink:href="#linear-gradient-13"/><linearGradient id="linear-gradient-64" x1="222.57" y1="232.49" x2="237.49" y2="232.49" xlink:href="#linear-gradient-13"/><linearGradient id="linear-gradient-65" x1="229.8" y1="209.23" x2="238.23" y2="209.23" xlink:href="#linear-gradient-13"/><linearGradient id="linear-gradient-66" x1="216.69" y1="246.95" x2="234.31" y2="246.95" xlink:href="#linear-gradient-13"/><linearGradient id="linear-gradient-67" x1="198.51" y1="269.12" x2="238.96" y2="269.12" xlink:href="#linear-gradient-13"/><linearGradient id="linear-gradient-68" x1="198.28" y1="250.72" x2="209.6" y2="250.72" xlink:href="#linear-gradient-13"/><linearGradient id="linear-gradient-69" x1="191.69" y1="235.36" x2="218.68" y2="235.36" xlink:href="#linear-gradient-13"/><linearGradient id="linear-gradient-70" x1="195.41" y1="215.33" x2="231.05" y2="215.33" xlink:href="#linear-gradient-13"/><linearGradient id="linear-gradient-71" x1="209.47" y1="197.56" x2="238.2" y2="197.56" xlink:href="#linear-gradient-13"/><linearGradient id="linear-gradient-72" x1="124.5" y1="193.93" x2="129.21" y2="193.93" gradientUnits="userSpaceOnUse"><stop offset="0" stop-color="#fff"/><stop offset="0.14" stop-color="#edf7fb"/><stop offset="0.43" stop-color="#bee2f1"/><stop offset="0.83" stop-color="#73c1e0"/><stop offset="1" stop-color="#51b2d9"/></linearGradient><linearGradient id="linear-gradient-73" x1="108.05" y1="227.33" x2="186.99" y2="227.33" xlink:href="#linear-gradient-13"/><linearGradient id="linear-gradient-74" x1="133.38" y1="217.7" x2="191.92" y2="217.7" xlink:href="#linear-gradient-13"/><linearGradient id="linear-gradient-75" x1="182.83" y1="232.85" x2="277.89" y2="232.85" xlink:href="#linear-gradient-13"/><linearGradient id="linear-gradient-76" x1="110.47" y1="168.59" x2="111.98" y2="168.59" xlink:href="#linear-gradient"/><linearGradient id="linear-gradient-77" x1="128.34" y1="170.14" x2="129.85" y2="170.14" xlink:href="#linear-gradient"/><linearGradient id="linear-gradient-78" x1="107.57" y1="185.81" x2="109.09" y2="185.81" xlink:href="#linear-gradient"/><linearGradient id="linear-gradient-79" x1="125.43" y1="186.78" x2="126.94" y2="186.78" xlink:href="#linear-gradient"/><linearGradient id="linear-gradient-80" x1="123.9" y1="193.01" x2="125.42" y2="193.01" xlink:href="#linear-gradient"/><linearGradient id="linear-gradient-81" x1="108.2" y1="203.12" x2="109.71" y2="203.12" xlink:href="#linear-gradient"/><linearGradient id="linear-gradient-82" x1="124.54" y1="207.36" x2="126.05" y2="207.36" xlink:href="#linear-gradient"/><linearGradient id="linear-gradient-83" x1="112.42" y1="220.37" x2="113.93" y2="220.37" xlink:href="#linear-gradient"/><linearGradient id="linear-gradient-84" x1="126.13" y1="218.06" x2="127.64" y2="218.06" xlink:href="#linear-gradient"/><linearGradient id="linear-gradient-85" x1="132" y1="206.76" x2="133.51" y2="206.76" xlink:href="#linear-gradient"/><linearGradient id="linear-gradient-86" x1="134.93" y1="224.46" x2="136.44" y2="224.46" xlink:href="#linear-gradient"/><linearGradient id="linear-gradient-87" x1="131.41" y1="235.4" x2="132.92" y2="235.4" xlink:href="#linear-gradient"/><linearGradient id="linear-gradient-88" x1="145.86" y1="250.15" x2="147.37" y2="250.15" xlink:href="#linear-gradient"/><linearGradient id="linear-gradient-89" x1="126.72" y1="245.19" x2="128.23" y2="245.19" xlink:href="#linear-gradient"/><linearGradient id="linear-gradient-90" x1="146.6" y1="263.75" x2="148.11" y2="263.75" xlink:href="#linear-gradient"/><linearGradient id="linear-gradient-91" x1="162.86" y1="253.07" x2="164.37" y2="253.07" xlink:href="#linear-gradient"/><linearGradient id="linear-gradient-92" x1="166.02" y1="252.48" x2="167.53" y2="252.48" xlink:href="#linear-gradient"/><linearGradient id="linear-gradient-93" x1="172.57" y1="256.53" x2="174.08" y2="256.53" xlink:href="#linear-gradient"/><linearGradient id="linear-gradient-94" x1="154.85" y1="243.49" x2="156.36" y2="243.49" xlink:href="#linear-gradient"/><linearGradient id="linear-gradient-95" x1="168.5" y1="265.41" x2="170.01" y2="265.41" xlink:href="#linear-gradient"/><linearGradient id="linear-gradient-96" x1="170.74" y1="268.4" x2="172.25" y2="268.4" xlink:href="#linear-gradient"/><linearGradient id="linear-gradient-97" x1="163.62" y1="270.71" x2="165.13" y2="270.71" xlink:href="#linear-gradient"/><linearGradient id="linear-gradient-98" x1="178.42" y1="277.4" x2="179.93" y2="277.4" xlink:href="#linear-gradient"/><linearGradient id="linear-gradient-99" x1="189.2" y1="277.68" x2="190.71" y2="277.68" xlink:href="#linear-gradient"/><linearGradient id="linear-gradient-100" x1="185.71" y1="285.92" x2="187.22" y2="285.92" xlink:href="#linear-gradient"/><linearGradient id="linear-gradient-101" x1="195.1" y1="288.95" x2="196.61" y2="288.95" xlink:href="#linear-gradient"/><linearGradient id="linear-gradient-102" x1="197.85" y1="283.1" x2="199.36" y2="283.1" xlink:href="#linear-gradient"/><linearGradient id="linear-gradient-103" x1="217.52" y1="276.45" x2="219.03" y2="276.45" xlink:href="#linear-gradient"/><linearGradient id="linear-gradient-104" x1="215.67" y1="286.81" x2="217.19" y2="286.81" xlink:href="#linear-gradient"/><linearGradient id="linear-gradient-105" x1="230.13" y1="268.04" x2="231.64" y2="268.04" xlink:href="#linear-gradient"/><linearGradient id="linear-gradient-106" x1="225.72" y1="262.29" x2="227.23" y2="262.29" xlink:href="#linear-gradient"/><linearGradient id="linear-gradient-107" x1="242.48" y1="274.06" x2="244" y2="274.06" xlink:href="#linear-gradient"/><linearGradient id="linear-gradient-108" x1="222.71" y1="254.75" x2="224.22" y2="254.75" xlink:href="#linear-gradient"/><linearGradient id="linear-gradient-109" x1="216.12" y1="263.71" x2="217.63" y2="263.71" xlink:href="#linear-gradient"/><linearGradient id="linear-gradient-110" x1="238.03" y1="254.68" x2="239.55" y2="254.68" xlink:href="#linear-gradient"/><linearGradient id="linear-gradient-111" x1="229.2" y1="241.16" x2="230.71" y2="241.16" xlink:href="#linear-gradient"/><linearGradient id="linear-gradient-112" x1="252.53" y1="265.26" x2="254.04" y2="265.26" xlink:href="#linear-gradient"/><linearGradient id="linear-gradient-113" x1="233.41" y1="230.35" x2="234.93" y2="230.35" xlink:href="#linear-gradient"/><linearGradient id="linear-gradient-114" x1="250.02" y1="237.95" x2="251.53" y2="237.95" xlink:href="#linear-gradient"/><linearGradient id="linear-gradient-115" x1="270.65" y1="236.88" x2="272.16" y2="236.88" xlink:href="#linear-gradient"/><linearGradient id="linear-gradient-116" x1="264.78" y1="225.65" x2="266.29" y2="225.65" xlink:href="#linear-gradient"/><linearGradient id="linear-gradient-117" x1="257.01" y1="223.22" x2="258.52" y2="223.22" xlink:href="#linear-gradient"/><linearGradient id="linear-gradient-118" x1="277.22" y1="206.66" x2="278.73" y2="206.66" xlink:href="#linear-gradient"/><linearGradient id="linear-gradient-119" x1="261.41" y1="204.26" x2="262.92" y2="204.26" xlink:href="#linear-gradient"/><linearGradient id="linear-gradient-120" x1="237.5" y1="177.24" x2="239.02" y2="177.24" xlink:href="#linear-gradient"/><linearGradient id="linear-gradient-121" x1="230.17" y1="191.14" x2="231.68" y2="191.14" xlink:href="#linear-gradient"/><linearGradient id="linear-gradient-122" x1="236.7" y1="210.01" x2="238.21" y2="210.01" xlink:href="#linear-gradient"/><linearGradient id="linear-gradient-123" x1="217.52" y1="208.35" x2="219.03" y2="208.35" xlink:href="#linear-gradient"/><linearGradient id="linear-gradient-124" x1="208.7" y1="217.81" x2="210.21" y2="217.81" xlink:href="#linear-gradient"/><linearGradient id="linear-gradient-125" x1="204.38" y1="217.87" x2="205.89" y2="217.87" xlink:href="#linear-gradient"/><linearGradient id="linear-gradient-126" x1="198.82" y1="215.03" x2="200.34" y2="215.03" xlink:href="#linear-gradient"/><linearGradient id="linear-gradient-127" x1="195.12" y1="205.17" x2="196.63" y2="205.17" xlink:href="#linear-gradient"/><linearGradient id="linear-gradient-128" x1="194.78" y1="239.51" x2="196.29" y2="239.51" xlink:href="#linear-gradient"/><linearGradient id="linear-gradient-129" x1="186.98" y1="221.83" x2="188.49" y2="221.83" xlink:href="#linear-gradient"/><linearGradient id="linear-gradient-130" x1="182.23" y1="242.88" x2="183.74" y2="242.88" xlink:href="#linear-gradient"/><linearGradient id="linear-gradient-131" x1="184.46" y1="265.6" x2="185.97" y2="265.6" xlink:href="#linear-gradient"/><linearGradient id="linear-gradient-132" x1="191.07" y1="262.23" x2="192.58" y2="262.23" xlink:href="#linear-gradient"/><linearGradient id="linear-gradient-133" x1="164.68" y1="224.21" x2="166.19" y2="224.21" xlink:href="#linear-gradient"/><linearGradient id="linear-gradient-134" x1="155.89" y1="232.58" x2="157.4" y2="232.58" xlink:href="#linear-gradient"/><linearGradient id="linear-gradient-135" x1="147.54" y1="224.21" x2="149.05" y2="224.21" xlink:href="#linear-gradient"/><linearGradient id="linear-gradient-136" x1="177.57" y1="215.5" x2="179.08" y2="215.5" xlink:href="#linear-gradient"/><linearGradient id="linear-gradient-137" x1="171.48" y1="201.66" x2="173" y2="201.66" xlink:href="#linear-gradient"/><linearGradient id="linear-gradient-138" x1="158.83" y1="190.02" x2="160.34" y2="190.02" xlink:href="#linear-gradient"/><linearGradient id="linear-gradient-139" x1="146.69" y1="198.35" x2="148.2" y2="198.35" xlink:href="#linear-gradient"/><linearGradient id="linear-gradient-140" x1="153.34" y1="177.24" x2="154.85" y2="177.24" xlink:href="#linear-gradient"/><linearGradient id="linear-gradient-141" x1="191.11" y1="190.3" x2="192.62" y2="190.3" xlink:href="#linear-gradient"/><linearGradient id="linear-gradient-142" x1="163.83" y1="156.75" x2="165.35" y2="156.75" xlink:href="#linear-gradient"/><linearGradient id="linear-gradient-143" x1="154.64" y1="210.58" x2="156.15" y2="210.58" xlink:href="#linear-gradient"/><linearGradient id="linear-gradient-144" x1="136.48" y1="200.25" x2="137.99" y2="200.25" xlink:href="#linear-gradient"/><linearGradient id="linear-gradient-145" x1="132.72" y1="189.97" x2="134.24" y2="189.97" xlink:href="#linear-gradient"/><linearGradient id="linear-gradient-146" x1="249.36" y1="122.57" x2="250.87" y2="122.57" xlink:href="#linear-gradient"/><linearGradient id="linear-gradient-147" x1="220.54" y1="139.44" x2="222.05" y2="139.44" xlink:href="#linear-gradient"/><linearGradient id="linear-gradient-148" x1="195.68" y1="160.23" x2="197.19" y2="160.23" xlink:href="#linear-gradient"/><linearGradient id="linear-gradient-149" x1="127.79" y1="138.68" x2="129.31" y2="138.68" xlink:href="#linear-gradient"/><linearGradient id="linear-gradient-150" x1="141.8" y1="159.64" x2="143.31" y2="159.64" xlink:href="#linear-gradient"/><linearGradient id="linear-gradient-151" x1="179.85" y1="136.09" x2="181.36" y2="136.09" xlink:href="#linear-gradient"/></defs><g id="Group-13"><g id="Group-Copy"><path class="cls-1" d="M162.8,190.18c-12.89-.85-29,27.4-29,27.4a88.6,88.6,0,0,1-1.12-18.25c1-25.14,12.38-53,37.36-81.44C196,87.53,212.74,75.3,206.7,24.33c38.86,65.55,22,106.86.43,142.2"/><path id="Shape" class="cls-2" d="M108.29,197.63c-2.11-22.95,5.65-48,31.42-70,27.45-24.45,35-29.4,40.63-35.58-31.66,32.7-57,69.91-55.21,111.17"/><path class="cls-3" d="M185.08,230.6a104.17,104.17,0,0,1,9.07-22c17.21-32.16,47.44-62.74,44.4-107.79,11.51,16.06,28.28,55.44,24.9,95.09a106.37,106.37,0,0,1-5.15,25.17,93.94,93.94,0,0,1-7.53,16.72c9.06-5.64,22.24-18.27,27.32-32-1.47,16.58-6.53,41.76-24.48,60.09"/><path id="Shape-2" data-name="Shape" class="cls-4" d="M198.6,283.3c-23.77-52.37,20.56-63.68,39.54-106.61,1.51,25.42.55,58.8-21.28,87.24,9.06-1.51,14.69-4.53,22.24-9.62C234,265.17,224.41,278.77,198.6,283.3Z"/><path id="Shape-3" data-name="Shape" class="cls-5" d="M173.06,270.39C101.22,165.8,204.88,160.57,214.8,76.26,229.63,166.09,137.79,189.41,173.06,270.39Z"/><path id="Shape-4" data-name="Shape" class="cls-6" d="M227.57,29.28c28.76,70.26-131.86,152.26-48.19,248.53C81.48,166,236.82,130.8,227.57,29.28Z"/></g></g><g id="Line_Blue"><line class="cls-7" x1="108.88" y1="203.07" x2="127.53" y2="245.28"/><line class="cls-8" x1="113.46" y1="220.87" x2="147.03" y2="263.6"/><line class="cls-9" x1="111.26" y1="168.48" x2="108.88" y2="203.07"/><line class="cls-10" x1="128.55" y1="138.68" x2="108.37" y2="186.28"/><line class="cls-11" x1="129.06" y1="170.2" x2="125.3" y2="207.36"/><line class="cls-12" x1="124.66" y1="192.25" x2="132.11" y2="235.79"/><line class="cls-13" x1="136.44" y1="224.46" x2="171.45" y2="268.68"/><line class="cls-14" x1="146.69" y1="250.37" x2="186.79" y2="286.05"/><line class="cls-15" x1="142.56" y1="159.64" x2="133.51" y2="206.76"/><line class="cls-16" x1="133.47" y1="189.67" x2="135.67" y2="224.6"/><line class="cls-17" x1="146.69" y1="198.35" x2="155.6" y2="243.49"/><line class="cls-18" x1="154.15" y1="177.63" x2="148.05" y2="224.26"/><line class="cls-19" x1="164.49" y1="156.78" x2="147.54" y2="198.32"/><line class="cls-20" x1="180.6" y1="136.09" x2="153.98" y2="176.96"/><line class="cls-21" x1="159.92" y1="190.01" x2="156.64" y2="231.82"/><line class="cls-22" x1="155.34" y1="210.53" x2="163.61" y2="253.83"/><line class="cls-23" x1="127.48" y1="244.43" x2="108.88" y2="203.07"/><line class="cls-24" x1="191.79" y1="190.35" x2="172.12" y2="238.16"/><line class="cls-25" x1="178.23" y1="215.61" x2="173.31" y2="256.47"/><line class="cls-26" x1="172.12" y1="238.16" x2="186.79" y2="286.05"/><line class="cls-27" x1="172.24" y1="202.41" x2="166.87" y2="252.58"/><line class="cls-28" x1="165.34" y1="224.94" x2="179.38" y2="277.81"/><line class="cls-29" x1="221.29" y1="139.44" x2="178.23" y2="215.61"/><line class="cls-30" x1="262.16" y1="204.42" x2="250.77" y2="237.83"/><line class="cls-31" x1="277.58" y1="207.14" x2="250.77" y2="237.83"/><line class="cls-32" x1="271.31" y1="236.98" x2="243.51" y2="273.94"/><line class="cls-33" x1="216.55" y1="286.65" x2="253.29" y2="265.26"/><line class="cls-34" x1="195.99" y1="288.94" x2="242.49" y2="274.28"/><line class="cls-35" x1="185.21" y1="266.35" x2="195.99" y2="288.94"/><line class="cls-36" x1="182.98" y1="242.91" x2="190.71" y2="277.68"/><line class="cls-37" x1="187.72" y1="221.89" x2="185.21" y2="265.6"/><line class="cls-38" x1="195.87" y1="205.17" x2="182.98" y2="242.91"/><line class="cls-39" x1="205.86" y1="217.99" x2="195.87" y2="205.17"/><line class="cls-40" x1="199.76" y1="215.1" x2="209.59" y2="217.82"/><line class="cls-41" x1="238.14" y1="176.69" x2="234.17" y2="229.6"/><line class="cls-42" x1="230.93" y1="191.14" x2="209.59" y2="217.82"/><line class="cls-43" x1="218.27" y1="209.11" x2="238.26" y2="178"/><line class="cls-44" x1="236.7" y1="210.01" x2="229.95" y2="241.16"/><line class="cls-45" x1="234.18" y1="230.53" x2="223.47" y2="254.75"/><line class="cls-46" x1="229.95" y1="241.92" x2="216.86" y2="263.93"/><line class="cls-47" x1="195.35" y1="239.18" x2="219.03" y2="208.35"/><line class="cls-48" x1="209.59" y1="217.82" x2="192.58" y2="262.23"/><line class="cls-49" x1="195.53" y1="240.26" x2="198.6" y2="283.3"/><line class="cls-50" x1="198.61" y1="282.35" x2="230.13" y2="268.04"/><line class="cls-51" x1="239.1" y1="254.31" x2="217.63" y2="263.71"/><line class="cls-52" x1="195.99" y1="288.94" x2="253.29" y2="265.26"/><line class="cls-53" x1="270.98" y1="237.35" x2="216.55" y2="286.65"/><line class="cls-54" x1="243.24" y1="274.06" x2="277.98" y2="207.41"/><line class="cls-55" x1="195.99" y1="288.94" x2="182.23" y2="242.88"/><line class="cls-56" x1="187.72" y1="221.89" x2="190.4" y2="277.08"/><line class="cls-57" x1="195.87" y1="205.17" x2="185.21" y2="265.6"/><line class="cls-58" x1="237.35" y1="210.22" x2="222.71" y2="254.75"/><line class="cls-59" x1="238.08" y1="177.29" x2="229.95" y2="241.16"/><line class="cls-60" x1="234.18" y1="230.53" x2="216.82" y2="263.36"/><line class="cls-61" x1="238.87" y1="254.93" x2="198.6" y2="283.3"/><line class="cls-62" x1="209.46" y1="218.56" x2="198.43" y2="282.87"/><line class="cls-63" x1="218.55" y1="208.5" x2="191.82" y2="262.23"/><line class="cls-64" x1="230.93" y1="191.14" x2="195.53" y2="239.51"/><line class="cls-65" x1="238.08" y1="177.29" x2="209.59" y2="217.82"/><path class="cls-66" d="M129.06,170.2l-4.41,22.69c0,6.06.72,18.9,2,24.76"/><path class="cls-67" d="M132.62,206.8l3,17.8-3.56,10.34L127,218.5l8.65,6.1,11,25.77,17.8,20.35c.6.08,21.55,15.79,22.3,15.33l-13.48-29.58-1.19-18.31,6.11-22.55c-5.86-15.43-6.42-14.79-18.31-25.6-.39,1.25-4.28,19.41-4.58,20.52l1.19,22.21c2.73,9.33,9.91,27.64,14.92,35.94-10.33-7.07-31.43-23.33-39.34-32.89l15.69,28.28-.77-.47-19.5-18.32c-.17-.36-13.86-24.05-14.07-24.41l-.34-1.19-4.24-16.61-.51-16.79-.17-.68,3.06-17.12"/><path class="cls-68" d="M191.79,190.35l-13.56,25.26-5.94-14.07-6.95,22.38v1l1.53,27.64,12.51,25.23c-12.41-13.57-25.75-36-31.33-53.55l-.51-25.94,11.87-9-5.26-11.7,10.34-20.85L154,176.28V177l-6.44,21.36-9.67,2-.67-.17-3.68-10.06"/><path class="cls-69" d="M262.16,204.42c-.06.22-4.46,18.75-4.51,18.94s-7,14.44-6.75,14.76l14.5-12.52,12.18-18.46L271.31,237l-11.7,21.7-16.1,15.26-1,.34-25.94,12.37h-.68L196,288.94c-10.58-17.74-11.63-26-13-46l4.74-21,8.14-17.13c-.59.29,3.78,9.87,3.9,10.34.42.18,5.75,3,6.1,2.89l3.73-.17c10-10.5,22.63-27.18,28.49-40.53.21,12.93-.6,40.89-3.9,53.24-4.16,10.3-10,24.84-17.32,33.4l9.52-1.69,11.87-7.12c-7.29,13.34-7,13-19.67,21.36h-.68l-19.3,6.82c-8.63-25.11-6.93-18.74-3.25-44.12l14.24-21.36"/></g><g id="Dots"><circle class="cls-70" cx="111.22" cy="168.59" r="0.76"/><circle class="cls-71" cx="129.1" cy="170.14" r="0.76"/><circle class="cls-72" cx="108.33" cy="185.81" r="0.76"/><circle class="cls-73" cx="126.19" cy="186.78" r="0.76"/><circle class="cls-74" cx="124.66" cy="193.01" r="0.76"/><circle class="cls-75" cx="108.96" cy="203.12" r="0.76"/><circle class="cls-76" cx="125.3" cy="207.36" r="0.76"/><circle class="cls-77" cx="113.17" cy="220.37" r="0.76"/><circle class="cls-78" cx="126.89" cy="218.06" r="0.76"/><circle class="cls-79" cx="132.76" cy="206.76" r="0.76"/><circle class="cls-80" cx="135.68" cy="224.46" r="0.76"/><circle class="cls-81" cx="132.16" cy="235.4" r="0.76"/><circle class="cls-82" cx="146.62" cy="250.15" r="0.76"/><circle class="cls-83" cx="127.48" cy="245.19" r="0.76"/><circle class="cls-84" cx="147.36" cy="263.75" r="0.76"/><circle class="cls-85" cx="163.61" cy="253.07" r="0.76"/><circle class="cls-86" cx="166.77" cy="252.48" r="0.76"/><circle class="cls-87" cx="173.32" cy="256.53" r="0.76"/><circle class="cls-88" cx="155.6" cy="243.49" r="0.76"/><circle class="cls-89" cx="169.25" cy="265.41" r="0.76"/><circle class="cls-90" cx="171.5" cy="268.4" r="0.76"/><circle class="cls-91" cx="164.38" cy="270.71" r="0.76"/><circle class="cls-92" cx="179.17" cy="277.4" r="0.76"/><circle class="cls-93" cx="189.96" cy="277.68" r="0.76"/><circle class="cls-94" cx="186.46" cy="285.92" r="0.76"/><circle class="cls-95" cx="195.85" cy="288.95" r="0.76"/><circle class="cls-96" cx="198.61" cy="283.1" r="0.76"/><circle class="cls-97" cx="218.27" cy="276.45" r="0.76"/><circle class="cls-98" cx="216.43" cy="286.81" r="0.76"/><circle class="cls-99" cx="230.88" cy="268.04" r="0.76"/><circle class="cls-100" cx="226.48" cy="262.29" r="0.76"/><circle class="cls-101" cx="243.24" cy="274.06" r="0.76"/><circle class="cls-102" cx="223.47" cy="254.75" r="0.76"/><circle class="cls-103" cx="216.87" cy="263.71" r="0.76"/><circle class="cls-104" cx="238.79" cy="254.68" r="0.76"/><circle class="cls-105" cx="229.95" cy="241.16" r="0.76"/><circle class="cls-106" cx="253.29" cy="265.26" r="0.76"/><circle class="cls-107" cx="234.17" cy="230.35" r="0.76"/><circle class="cls-108" cx="250.77" cy="237.95" r="0.76"/><circle class="cls-109" cx="271.41" cy="236.88" r="0.76"/><circle class="cls-110" cx="265.54" cy="225.65" r="0.76"/><circle class="cls-111" cx="257.77" cy="223.22" r="0.76"/><circle class="cls-112" cx="277.98" cy="206.66" r="0.76"/><circle class="cls-113" cx="262.17" cy="204.26" r="0.76"/><circle class="cls-114" cx="238.26" cy="177.24" r="0.76"/><circle class="cls-115" cx="230.93" cy="191.14" r="0.76"/><circle class="cls-116" cx="237.45" cy="210.01" r="0.76"/><circle class="cls-117" cx="218.27" cy="208.35" r="0.76"/><circle class="cls-118" cx="209.46" cy="217.81" r="0.76"/><circle class="cls-119" cx="205.13" cy="217.87" r="0.76"/><circle class="cls-120" cx="199.58" cy="215.03" r="0.76"/><circle class="cls-121" cx="195.87" cy="205.17" r="0.76"/><circle class="cls-122" cx="195.53" cy="239.51" r="0.76"/><circle class="cls-123" cx="187.73" cy="221.83" r="0.76"/><circle class="cls-124" cx="182.99" cy="242.88" r="0.76"/><circle class="cls-125" cx="185.21" cy="265.6" r="0.76"/><circle class="cls-126" cx="191.82" cy="262.23" r="0.76"/><circle class="cls-127" cx="165.44" cy="224.21" r="0.76"/><circle class="cls-128" cx="156.64" cy="232.58" r="0.76"/><circle class="cls-129" cx="148.29" cy="224.21" r="0.76"/><circle class="cls-130" cx="178.32" cy="215.5" r="0.76"/><circle class="cls-131" cx="172.24" cy="201.66" r="0.76"/><circle class="cls-132" cx="159.59" cy="190.02" r="0.76"/><circle class="cls-133" cx="147.44" cy="198.35" r="0.76"/><circle class="cls-134" cx="154.1" cy="177.24" r="0.76"/><circle class="cls-135" cx="191.87" cy="190.3" r="0.76"/><circle class="cls-136" cx="164.59" cy="156.75" r="0.76"/><circle class="cls-137" cx="155.4" cy="210.58" r="0.76"/><circle class="cls-138" cx="137.24" cy="200.25" r="0.76"/><circle class="cls-139" cx="133.48" cy="189.97" r="0.76"/><circle class="cls-140" cx="250.12" cy="122.57" r="0.76"/><circle class="cls-141" cx="221.29" cy="139.44" r="0.76"/><circle class="cls-142" cx="196.43" cy="160.23" r="0.76"/><circle class="cls-143" cx="128.55" cy="138.68" r="0.76"/><circle class="cls-144" cx="142.56" cy="159.64" r="0.76"/><circle class="cls-145" cx="180.6" cy="136.09" r="0.76"/></g><line class="cls-146" x1="172.29" y1="201.54" x2="185.41" y2="178.26"/><path class="cls-147" d="M114.36,306.29h6a1.83,1.83,0,0,1,1.25,3.16,1.84,1.84,0,0,1-1.25.53h-5.78a1.77,1.77,0,0,0-1.47.79L108,317.35a3.3,3.3,0,0,0-.64,2.17V329.6a1.85,1.85,0,0,0,.53,1.33,1.73,1.73,0,0,0,1.29.54h7.42a1.84,1.84,0,0,0,1.82-1.82V325.7h-3.77a1.83,1.83,0,0,1-1.31-3.11,1.75,1.75,0,0,1,1.31-.53h7.41v7.59a5.46,5.46,0,0,1-5.46,5.46h-7.42a5.3,5.3,0,0,1-3.89-1.6,5.24,5.24,0,0,1-1.62-3.86V319.56a7.21,7.21,0,0,1,1.46-4.57l5.37-6.83a5,5,0,0,1,3.82-1.87Z"/><path class="cls-147" d="M130.67,333.29v-27h12.88a5.23,5.23,0,0,1,3.85,1.63A5.3,5.3,0,0,1,149,311.8v2.08a5.31,5.31,0,0,1-1.61,3.89,5.23,5.23,0,0,1-3.86,1.62h-2.32l7.44,12.8a2.13,2.13,0,0,1,.35,1.12,1.67,1.67,0,0,1-.57,1.27,1.86,1.86,0,0,1-2.93-.44L137,319.39h-2.63v13.9a1.71,1.71,0,0,1-.56,1.29,1.78,1.78,0,0,1-1.31.53,1.81,1.81,0,0,1-1.82-1.82Zm3.64-17.54h9.24a1.81,1.81,0,0,0,1.82-1.83V311.8a1.81,1.81,0,0,0-1.82-1.82h-9.24Z"/><path class="cls-147" d="M157.56,332.58l7.34-24.93a1.77,1.77,0,0,1,1.84-1.36,1.58,1.58,0,0,1,1.71,1.15l7.27,25.31a2.14,2.14,0,0,1,.08.54,1.75,1.75,0,0,1-.52,1.29,1.58,1.58,0,0,1-1.19.53,1.72,1.72,0,0,1-1.82-1.32l-1.44-4.94h-8.34l-1.59,5.29a1.1,1.1,0,0,1-.55.66,1.84,1.84,0,0,1-1,.31,1.77,1.77,0,0,1-1.33-.54,1.83,1.83,0,0,1-.53-1.32A2.29,2.29,0,0,1,157.56,332.58Zm9.16-17.85-3.13,10.43h6.16Z"/><path class="cls-147" d="M184.28,333.29v-27h12.93a5.23,5.23,0,0,1,3.85,1.63,5.33,5.33,0,0,1,1.61,3.88v6.83a5.48,5.48,0,0,1-5.46,5.47H188v9.19a1.81,1.81,0,0,1-1.82,1.82,1.83,1.83,0,0,1-1.33-.53A1.73,1.73,0,0,1,184.28,333.29ZM188,320.45h9.24a1.83,1.83,0,0,0,1.82-1.82V311.8a1.83,1.83,0,0,0-1.82-1.82H188Z"/><path class="cls-147" d="M211,333.29V308.11a1.75,1.75,0,0,1,.54-1.28,1.83,1.83,0,0,1,3.11,1.28v10.74h11.1V308.11a1.78,1.78,0,0,1,.53-1.28,1.76,1.76,0,0,1,1.29-.54,1.73,1.73,0,0,1,1.29.54,1.82,1.82,0,0,1,.54,1.33v25.13a1.74,1.74,0,0,1-.56,1.28,1.77,1.77,0,0,1-1.27.54,1.73,1.73,0,0,1-1.3-.53,1.75,1.75,0,0,1-.52-1.29v-10.8H214.71v10.8a1.73,1.73,0,0,1-.55,1.28,1.82,1.82,0,0,1-1.31.54,1.73,1.73,0,0,1-1.28-.53A1.7,1.7,0,0,1,211,333.29Z"/><path class="cls-147" d="M239.72,306.29h14.74a1.77,1.77,0,0,1,1.27.54,1.74,1.74,0,0,1,.56,1.28,1.8,1.8,0,0,1-.55,1.31,1.72,1.72,0,0,1-1.28.56H249v21.49h5.5a1.81,1.81,0,0,1,1.83,1.82,1.84,1.84,0,0,1-1.83,1.82H239.72a1.83,1.83,0,0,1-1.83-1.82,1.83,1.83,0,0,1,1.83-1.82h5.59V310h-5.59a1.73,1.73,0,0,1-1.29-.54,1.77,1.77,0,0,1-.54-1.28,1.82,1.82,0,0,1,.54-1.33A1.73,1.73,0,0,1,239.72,306.29Z"/><path class="cls-147" d="M264.81,333.29v-27h12.88a5.23,5.23,0,0,1,3.85,1.63,5.3,5.3,0,0,1,1.62,3.88v2.08a5.31,5.31,0,0,1-1.61,3.89,5.23,5.23,0,0,1-3.86,1.62h-2.32l7.44,12.8a2.13,2.13,0,0,1,.35,1.12,1.67,1.67,0,0,1-.57,1.27,1.79,1.79,0,0,1-1.28.53,1.77,1.77,0,0,1-1.65-1l-8.53-14.75H268.5v13.9a1.71,1.71,0,0,1-.56,1.29,1.8,1.8,0,0,1-1.31.53,1.74,1.74,0,0,1-1.29-.53A1.76,1.76,0,0,1,264.81,333.29Zm3.64-17.54h9.24a1.81,1.81,0,0,0,1.82-1.83V311.8a1.81,1.81,0,0,0-1.82-1.82h-9.24Z"/><circle class="cls-148" cx="172.32" cy="237.96" r="0.76"/></svg>